<?xml version="1.0" standalone="no"?>
<!DOCTYPE svg PUBLIC "-//W3C//DTD SVG 20010904//EN"
 "http://www.w3.org/TR/2001/REC-SVG-20010904/DTD/svg10.dtd">
<svg version="1.0" xmlns="http://www.w3.org/2000/svg"
 width="454.000000pt" height="454.000000pt" viewBox="0 0 454.000000 454.000000"
 preserveAspectRatio="xMidYMid meet">

<g transform="translate(0.000000,454.000000) scale(0.100000,-0.100000)"
fill="#000000" stroke="none">
<path d="M710 2765 l0 -965 1159 0 c764 0 1160 3 1163 10 2 5 3 -62 3 -149 0
-88 -2 -155 -5 -150 -8 11 -1470 24 -1470 12 0 -16 22 -32 39 -26 13 4 13 3 2
-5 -12 -8 -10 -15 8 -39 13 -15 28 -28 34 -28 7 0 12 -7 12 -15 0 -18 24 -62
39 -72 13 -9 1507 -11 1530 -2 14 5 16 43 16 321 0 197 -4 321 -10 334 -10 19
-34 19 -1150 19 -888 0 -1140 -3 -1140 -12 0 -8 -4 -8 -12 2 -10 12 -12 173
-8 763 l5 748 985 -1 c542 0 1134 -3 1315 -6 l330 -5 90 76 c50 42 110 94 135
115 l45 40 -1557 0 -1558 0 0 -965z m2910 811 c0 -3 -4 -8 -10 -11 -5 -3 -10
-1 -10 4 0 6 5 11 10 11 6 0 10 -2 10 -4z m-2705 -46 c-3 -5 -12 -10 -18 -10
-7 0 -6 4 3 10 19 12 23 12 15 0z"/>
<path d="M1206 3124 c-8 -21 -8 -591 0 -687 l7 -77 1121 0 c617 0 1131 -3
1144 -6 l22 -6 0 -701 0 -700 -1155 7 -1155 7 -178 -76 c-97 -42 -190 -83
-206 -90 -25 -11 194 -14 1417 -15 l1447 -1 0 871 0 871 -1152 -3 -1153 -3 -3
90 c-1 50 1 152 5 228 l8 138 779 0 c428 0 782 2 787 5 9 5 -17 43 -80 122
l-34 42 -808 0 c-726 0 -807 -2 -813 -16z"/>
</g>
</svg>
