<?xml version="1.0" standalone="no"?>
<!DOCTYPE svg PUBLIC "-//W3C//DTD SVG 20010904//EN"
 "http://www.w3.org/TR/2001/REC-SVG-20010904/DTD/svg10.dtd">
<svg version="1.0" xmlns="http://www.w3.org/2000/svg"
 width="500.000000pt" height="500.000000pt" viewBox="0 0 500.000000 500.000000"
 preserveAspectRatio="xMidYMid meet">

<g transform="translate(0.000000,500.000000) scale(0.100000,-0.100000)"
fill="#000000" stroke="none">
<path d="M117 4883 c-4 -3 -7 -1068 -7 -2365 l0 -2358 2365 0 2365 0 0 2365 0
2365 -2358 0 c-1297 0 -2362 -3 -2365 -7z m4643 -2363 l0 -2280 -2285 0 -2285
0 0 2280 0 2280 2285 0 2285 0 0 -2280z"/>
<path d="M1730 4455 l0 -45 1270 0 1270 0 0 -110 0 -110 -785 0 -785 0 0 -45
0 -45 835 0 835 0 0 200 0 200 -1320 0 -1320 0 0 -45z"/>
<path d="M1490 4179 c-85 -12 -208 -55 -280 -96 -80 -47 -233 -198 -279 -275
-80 -137 -121 -333 -102 -482 42 -310 234 -545 532 -648 l94 -32 328 -4 327
-4 0 -110 0 -110 -307 4 c-293 4 -313 6 -404 30 -179 48 -331 134 -465 260
-97 92 -160 175 -218 286 -74 144 -102 244 -122 435 l-5 57 -45 0 c-51 0 -50
5 -33 -135 47 -384 288 -729 629 -900 203 -102 333 -125 696 -125 l274 0 -2
-397 -3 -398 -457 -3 -458 -2 0 -45 0 -45 460 0 460 0 0 -100 0 -100 -715 0
-715 0 0 -45 0 -45 715 0 716 0 -3 -97 -3 -98 -187 -3 -188 -2 0 -45 0 -45
190 0 190 0 0 -165 0 -165 195 0 195 0 0 165 0 165 423 0 c447 0 541 7 679 50
359 111 633 397 729 760 78 296 24 618 -148 877 -47 72 -169 201 -246 260 -73
57 -204 126 -298 159 -152 52 -185 56 -527 61 l-322 5 2 392 3 391 788 3 787
2 0 45 0 45 -835 0 -835 0 0 -1065 0 -1065 45 0 45 0 2 273 3 272 249 3 c137
1 273 -2 303 -7 122 -23 237 -113 291 -228 24 -52 27 -70 27 -163 0 -99 -2
-110 -32 -171 -41 -82 -111 -150 -201 -192 l-67 -32 -432 -3 -433 -3 -2 1328
-3 1328 -475 1 c-261 1 -500 -2 -530 -7z m910 -1819 l0 -1740 -100 0 -100 0 0
1646 0 1645 -337 -3 c-328 -3 -340 -4 -398 -27 -128 -51 -221 -133 -274 -246
-130 -271 2 -575 294 -678 17 -6 158 -13 325 -16 l295 -6 3 -103 3 -104 -323
5 c-289 3 -329 6 -383 24 -300 100 -485 347 -486 650 -1 124 14 191 66 298 71
146 162 240 305 314 142 74 180 78 703 80 l407 1 0 -1740z m-292 1062 l2 -393
-292 3 -293 3 -65 31 c-111 54 -185 144 -216 264 -53 208 79 424 291 476 34 9
133 12 310 11 l260 -2 3 -393z m1271 -492 c617 -64 1022 -652 861 -1250 -30
-108 -109 -262 -185 -357 -109 -136 -280 -258 -443 -314 -143 -50 -162 -51
-649 -56 l-463 -5 0 101 0 100 463 3 c446 4 465 5 537 27 348 105 572 404 572
761 0 308 -164 572 -437 705 -154 75 -170 77 -527 82 l-318 5 0 97 c0 54 3
101 7 104 10 11 471 8 582 -3z m116 -323 c241 -80 424 -281 476 -522 15 -74
13 -231 -6 -311 -45 -196 -189 -372 -380 -464 -136 -66 -178 -70 -660 -70
l-425 0 0 99 0 100 438 3 c423 4 439 4 496 26 157 59 274 185 316 341 15 56
15 185 0 241 -43 158 -159 284 -316 342 -55 20 -81 22 -351 26 l-293 4 0 110
0 110 313 -4 c306 -4 313 -5 392 -31z"/>
</g>
</svg>
